<?xml version="1.0" encoding="utf-8"?>
<!-- Generator: Adobe Illustrator 22.1.0, SVG Export Plug-In . SVG Version: 6.00 Build 0)  -->
<svg version="1.1" id="Layer_1" xmlns="http://www.w3.org/2000/svg" xmlns:xlink="http://www.w3.org/1999/xlink" x="0px" y="0px"
	 viewBox="0 0 371 70" style="enableBackground:new 0 0 371 70;" xml:space="preserve">
<style type="text/css">
	.st0{fill:#B34A15;}
	.st1{fill:#FFFFFF;}
	.st2{fill:#626366;}
	.st3{fill:#F2F2F2;}
	.st4{fill:none;stroke:#626366;stroke-miterlimit:10;}
</style>
<g>
	<g>
		<path class="st0" d="M150.7,50.4h-90v13.3h97v-7.3C157.7,51.9,154.5,50.4,150.7,50.4z"/>
		<path class="st0" d="M154,25.5h-2.7V5.9h-16v22.2l-18.1,5.7V10.7c0-3.1-3-4.8-6.2-4.8h-8.2c-3.6,0-5.9,2.3-5.9,5.3v3.5h4.2v32.6
			h16.1l18.1-5.8v5.8h18c2.5,0,4.6-1.6,4.6-3.8V29.1C158,26.7,156.4,25.5,154,25.5z"/>
		<path class="st0" d="M76,47.4h16.1V10.7c0-3.1-3-4.8-6.2-4.8H66.8c-3.6,0-6,2.3-6,5.3v3.5H76V47.4z"/>
		<path class="st0" d="M52.6,50.5H41.5c-2.6,0-4.4,1.3-4.4,3.2v2.9h3.3v1.7c-2,0.2-2.8,0-3.4-0.1c-2.2-0.2-4.6-2.4-7.2-3.6
			c-2.8-1.3-4.9-0.2-4.9-0.2l-6.7,3.8v-7.8H2.7v9.7c0,1.8,1.5,3.5,3.8,3.5h9.4c2.1,0.1,3.1-0.5,3.1-0.5l5.9-3.6c0,0,1.7-1.4,4.9,1
			C33,63,36,63.5,37,63.7h19.4v-9C56.4,52,54.1,50.5,52.6,50.5z"/>
		<path class="st0" d="M50.2,5.9H8.6c-3.6,0-5.9,2.4-5.9,5.4v17.1h36.1c1.5,0,1.6,1.6,1.6,1.6v9.5l-22.2-8.5H8.1
			c-3.2,0-5.4,2.6-5.4,5v4.2l15.6,0c0.1-0.1,0.3,0,0.3,0l18.3,7h19.4V25.6c0-4-3.8-5.1-5.7-5.1H18.2v-4.7c0-1,1-1.1,1-1.1h20.3
			c0.8,0,0.8,0.9,0.8,0.9v1h16v-6C56.4,7.7,53.4,5.9,50.2,5.9z"/>
	</g>
	<g>
		<rect x="76.3" y="53.6" class="st1" width="1.6" height="6.9"/>
		<path class="st1" d="M89.1,60.5h-1.8v-4.6c0-0.7-0.8-1.1-1.9-1.1h-2.2c-1.1,0-1.9,0.3-1.9,1.1v0.5h4.8v1.2h-4.8v2.9h-1.8v-4.7
			c0-1.4,1.6-2.2,3.6-2.2h1l0.8-0.7H87l-0.8,0.7c1.6,0.2,2.9,0.9,2.9,2.2V60.5z"/>
		<path class="st1" d="M99.8,56.4v1.7c0,1.6-1.5,2.5-3.7,2.5l-5.7,0v-1.2l5.4,0c1.4,0,2.2-0.5,2.2-1.3v-0.5h-7.6v-1.9
			c0-1.2,1.4-2,3.3-2h2.9c1.8,0,3.2,0.7,3.2,2h-1.8c-0.1-0.6-0.7-0.8-1.5-0.8h-2.7c-1,0-1.5,0.4-1.5,0.9v0.6H99.8z"/>
		<path class="st1" d="M111.5,57.5h-0.8v0.7c0,1.4-1.6,2.3-4.1,2.3h-1.4c-2.6,0-4.1-0.9-4.1-2.3v-4.7h1.8v4.5c0,0.8,0.9,1.3,2.4,1.3
			h1.2c1.5,0,2.4-0.5,2.4-1.3v-0.6h-4.7v-1.2h4.7v-2.8h1.8v2.8h0.8V57.5z"/>
		<path class="st1" d="M122.2,62.4h-3.1c-0.2,0-0.6-0.1-1.1-0.5c-0.5-0.4-0.8-0.2-0.8-0.2l-1.2,0.6c0,0-0.4,0-0.6,0l-1.1,0
			c-0.4,0-0.6-0.3-0.6-0.5v-1.5h1.8v1.4l1.7-0.8c0,0,0.3-0.2,0.8,0c0.4,0.2,0.8,0.5,1.1,0.5c0.1,0,0.9,0,1.2,0v-0.3h-1.2v-0.4l0-0.5
			h3.1l0,0.6V62.4z"/>
		<path class="st1" d="M122.2,58.3c0,1.4-1.4,1.8-3.5,1.8l-5,0l-0.3-2.5h-0.9v-1.2h2.6l0.3,2.5h3.1c1.4,0,1.8-0.1,1.8-0.6v-2.4
			c0-0.7-0.8-1.1-1.9-1.1h-2.8c-0.8,0-1.4,0.3-1.5,0.8h-1.8c0-1.2,1.4-2,3.3-2h1.7l0.7-0.7h2.4l-0.8,0.7c1.6,0.2,2.7,0.9,2.7,1.9
			V58.3z"/>
		<path class="st1" d="M133.2,60.5h-1.8v-4.6c0-0.7-0.8-1.1-1.9-1.1h-2.2c-1.1,0-1.9,0.8-1.9,1.6h2.4v1.2c-1.3,0-2.3,0-2.3,0.7v2.3
			h-1.8v-2.4c0-0.6,0.6-0.6,1.4-0.8h-1.5v-1.1c0-1.4,1.6-2.6,3.6-2.6h2.4c2,0,3.6,0.8,3.6,2.2V60.5z"/>
		<rect x="124.3" y="51.7" class="st1" width="8.9" height="1.2"/>
		<path class="st1" d="M144.1,58.3c0,1.4-1.3,2.2-3.4,2.2h-5.1l-0.3-2.9h-0.9v-1.2h2.6l0.3,2.9h3.1c1.4,0,1.8-0.5,1.8-1v-2.4
			c0-0.7-0.8-1.1-1.9-1.1h-2.9c-0.8,0-1.4,0.3-1.5,0.8h-1.8c0-1.2,1.4-2,3.3-2h3.1c2.1,0,3.5,0.8,3.5,1.9V58.3z"/>
	</g>
</g>
<polygon class="st2" points="356.1,43.2 353.6,50.3 358.5,50.3 356.1,43.2 "/>
<path class="st2" d="M174.3,63.7h194.8V34.2H174.3V63.7z M196.2,56.8h-2.6V44.1L189,56.8h-2.3l-4.4-12.7l-0.1,12.7h-2.6V40.4h3.9
	l4.4,12.8l4.3-12.8h3.9V56.8z M217.6,50.9c0,2.1-0.6,3.7-1.7,4.7c-1.2,1-2.8,1.5-4.8,1.5c-2.1,0-3.7-0.5-4.8-1.5
	c-1.2-1-1.7-2.6-1.7-4.7V40.4h2.8V50c0,1.5,0.2,2.5,0.5,3.2c0.5,1,1.6,1.6,3.3,1.6c1.6,0,2.7-0.5,3.2-1.5c0.4-0.6,0.5-1.7,0.5-3.2
	v-9.5h2.8V50.9z M236.9,56.8H226V40.4h2.8v13.9h8.1V56.8z M255.3,42.9h-5.1v13.9h-2.8V42.9h-5.1v-2.5h13V42.9z M265.1,56.8h-2.8
	V40.4h2.8V56.8z M290.1,56.8h-2.6V44.1l-4.5,12.7h-2.3l-4.4-12.7l-0.1,12.7h-2.6V40.4h3.9l4.4,12.8l4.3-12.8h3.9V56.8z M310.2,56.8
	h-11.7V40.4h11.5v2.5h-8.7v4.3h8v2.3h-8v4.8h8.9V56.8z M329.8,54.4c-1.2,1.6-3,2.4-5.4,2.4h-6.7V40.4h6.7c2.3,0,4.1,0.8,5.4,2.4
	c1.1,1.4,1.7,3.4,1.7,5.8C331.4,51.1,330.9,53,329.8,54.4 M341.9,56.8h-2.8V40.4h2.8V56.8z M360.8,56.8l-1.5-4.3h-6.4l-1.5,4.3h-2.8
	l6-16.4h3l6.1,16.4H360.8z"/>
<path class="st2" d="M323.3,42.7h-2.8v11.7h2.8c2,0,3.5-0.6,4.3-1.7c0.7-0.9,1-2.3,1-4.2c0-1.8-0.3-3.2-1-4.1
	C326.8,43.3,325.4,42.7,323.3,42.7"/>
<polygon class="st3" points="173.9,8.9 173.9,6 187.9,6 187.9,8.9 182.1,8.9 182.1,29.5 179.6,29.5 179.6,8.9 "/>
<polygon class="st3" points="194,6 194,16 203,16 203,6 205.5,6 205.5,29.5 203,29.5 203,18.9 194,18.9 194,29.5 191.6,29.5 
	191.6,6 "/>
<path class="st3" d="M218.4,6l6.9,23.5h-2.8l-1.9-7h-7.1l-2,7h-2.6L215.6,6H218.4z M219.7,19.7l-2.8-10.5l-2.8,10.5H219.7z"/>
<polygon class="st3" points="239.7,29.5 231,10.5 231,29.5 228.5,29.5 228.5,6 231.4,6 240.1,25.1 240.1,6 242.5,6 242.5,29.5 "/>
<path class="st3" d="M257.6,10.8c-0.2-0.6-0.5-1.1-0.9-1.5c-0.4-0.4-0.8-0.7-1.3-0.8c-0.5-0.2-1-0.3-1.6-0.3c-0.5,0-0.9,0.1-1.4,0.2
	c-0.5,0.1-0.9,0.3-1.2,0.6c-0.4,0.3-0.6,0.7-0.9,1.2c-0.2,0.5-0.3,1.1-0.3,1.8c0,0.6,0.1,1.1,0.4,1.5c0.2,0.4,0.6,0.8,1,1
	c0.4,0.3,0.9,0.5,1.4,0.7c0.5,0.2,1.1,0.4,1.7,0.5c0.5,0.2,1,0.3,1.6,0.5c0.5,0.2,1,0.4,1.5,0.6c0.5,0.2,1,0.5,1.4,0.8
	c0.4,0.3,0.8,0.7,1.1,1.2c0.3,0.5,0.6,1,0.7,1.7c0.2,0.6,0.3,1.4,0.3,2.3c0,0.8-0.1,1.6-0.3,2.3c-0.2,0.7-0.4,1.3-0.8,1.8
	c-0.3,0.5-0.7,1-1.2,1.3c-0.4,0.4-0.9,0.7-1.4,0.9c-0.5,0.2-1,0.4-1.6,0.5c-0.5,0.1-1.1,0.2-1.6,0.2c-1,0-1.9-0.2-2.8-0.5
	c-0.9-0.3-1.6-0.8-2.3-1.5c-0.7-0.7-1.2-1.5-1.6-2.6c-0.4-1.1-0.6-2.3-0.6-3.8h2.3c0,1,0.1,1.9,0.4,2.6c0.3,0.7,0.6,1.3,1.1,1.7
	c0.5,0.5,1,0.8,1.6,1c0.6,0.2,1.2,0.3,1.9,0.3c0.4,0,0.7,0,1.1-0.1c0.4,0,0.7-0.1,1-0.3c0.3-0.1,0.6-0.3,0.9-0.5
	c0.3-0.2,0.5-0.5,0.7-0.8c0.2-0.3,0.4-0.7,0.5-1.1c0.1-0.4,0.2-0.9,0.2-1.5c0-0.7-0.1-1.3-0.4-1.8c-0.3-0.5-0.6-0.9-1.1-1.2
	c-0.5-0.3-1-0.6-1.6-0.8c-0.6-0.2-1.2-0.4-1.9-0.6c-0.5-0.1-1-0.3-1.5-0.5c-0.5-0.2-1-0.4-1.5-0.6c-0.5-0.2-0.9-0.5-1.3-0.8
	c-0.4-0.3-0.7-0.7-1-1.1c-0.3-0.4-0.5-0.9-0.7-1.5c-0.2-0.6-0.3-1.3-0.3-2c0-0.8,0.1-1.5,0.2-2.2c0.2-0.7,0.4-1.2,0.7-1.8
	c0.3-0.5,0.6-1,1-1.3c0.4-0.4,0.8-0.7,1.3-0.9c0.5-0.2,1-0.4,1.5-0.5c0.5-0.1,1.1-0.2,1.6-0.2c0.9,0,1.7,0.2,2.5,0.4
	c0.8,0.3,1.4,0.8,2,1.4c0.6,0.6,1,1.4,1.4,2.3c0.3,0.9,0.5,2.1,0.6,3.4H258C257.9,12.2,257.8,11.4,257.6,10.8"/>
<polygon class="st3" points="277.7,6 277.7,8.9 268,8.9 268,16 277,16 277,18.9 268,18.9 268,26.7 277.8,26.7 277.8,29.5 
	265.6,29.5 265.6,6 "/>
<polygon class="st3" points="280.3,8.9 280.3,6 294.3,6 294.3,8.9 288.5,8.9 288.5,29.5 286.1,29.5 286.1,8.9 "/>
<polygon class="st3" points="296.1,8.9 296.1,6 310.1,6 310.1,8.9 304.3,8.9 304.3,29.5 301.9,29.5 301.9,8.9 "/>
<path class="st3" d="M320.3,6l6.9,23.5h-2.8l-1.9-7h-7.1l-2,7h-2.6L317.6,6H320.3z M321.7,19.7l-2.8-10.5l-2.8,10.5H321.7z"/>
<polygon class="st3" points="332.9,6 332.9,17.5 341.6,6 344.8,6 337.3,15.5 345.1,29.5 341.9,29.5 335.6,17.8 332.9,21.2 
	332.9,29.5 330.5,29.5 330.5,6 "/>
<rect x="348.7" y="6" class="st3" width="2.5" height="23.5"/>
<path class="st3" d="M365.7,25.2c-0.1,0.5-0.2,1-0.3,1.5c-0.2,0.5-0.4,0.9-0.6,1.3c-0.3,0.4-0.6,0.7-1,1c-0.4,0.3-0.8,0.5-1.4,0.7
	c-0.5,0.2-1.1,0.2-1.8,0.2c-1.7,0-3-0.6-3.8-1.7c-0.9-1.1-1.3-2.8-1.3-5.1v-1.6h2.5v1.1c0,0.7,0,1.3,0.1,1.8c0.1,0.5,0.2,1,0.4,1.4
	c0.2,0.4,0.5,0.7,0.8,0.9c0.4,0.2,0.8,0.3,1.4,0.3c0.5,0,0.9-0.1,1.3-0.3c0.3-0.2,0.6-0.5,0.8-0.8c0.2-0.3,0.3-0.8,0.4-1.3
	c0.1-0.5,0.1-1.1,0.1-1.7V6h2.5v17.5C365.8,24.1,365.8,24.7,365.7,25.2"/>
<path class="st4" d="M165.5,63.5"/>
<rect x="166" y="7" class="st2" width="1" height="57"/>
</svg>
